<svg xmlns="http://www.w3.org/2000/svg" viewBox="0 0 500 500"><g id="freepik--background-simple--inject-76"><path d="M115,336.22c-49.44-20.7-95-101.28-46.44-166.33,50.62-67.8,111.52-49,176.81-.26,61,45.53,95.6-33,178.07,28.57,69.84,52.14,7,224-130.64,163.32C208.78,324.51,167.7,358.29,115,336.22Z" style="fill:#407BFF"></path><path d="M115,336.22c-49.44-20.7-95-101.28-46.44-166.33,50.62-67.8,111.52-49,176.81-.26,61,45.53,95.6-33,178.07,28.57,69.84,52.14,7,224-130.64,163.32C208.78,324.51,167.7,358.29,115,336.22Z" style="fill:#fff;opacity:0.9"></path></g><g id="freepik--Shadow--inject-76"><ellipse id="freepik--path--inject-76" cx="245.18" cy="412.39" rx="193.89" ry="11.32" style="fill:#f5f5f5"></ellipse></g><g id="freepik--tree-3--inject-76"><path d="M374.77,321.25c-5-.93-14.66,8.38-19.39,6.45-3.63-1.49-4.31-11.3-7.17-14-3.92-3.68-18.1-3.45-19.72-8.57-3.33-10.57,12.39-35.13,23.14-37.82,7.72-1.93,20,13.38,27.42,16.14,6.91,2.57,24.14-.27,29,5.25,5.66,6.39,4.58,26.94,0,34.14-2.95,4.63-14.52,10.41-19.9,9.32C384,331.32,379,322,374.77,321.25Z" style="fill:#407BFF"></path><path d="M374.77,321.25c-5-.93-14.66,8.38-19.39,6.45-3.63-1.49-4.31-11.3-7.17-14-3.92-3.68-18.1-3.45-19.72-8.57-3.33-10.57,12.39-35.13,23.14-37.82,7.72-1.93,20,13.38,27.42,16.14,6.91,2.57,24.14-.27,29,5.25,5.66,6.39,4.58,26.94,0,34.14-2.95,4.63-14.52,10.41-19.9,9.32C384,331.32,379,322,374.77,321.25Z" style="fill:#fff;opacity:0.2"></path><path d="M355.66,307.56c-2-2.11-8.57-7-8.57-7l.24-.78,9.39,6.34,3.81-11.23.63.52s-3.06,8.32-2.59,11.25c1,6.34,14.28,20.47,14.28,20.47h0s9.51-10.86,11.28-15.26c1.46-3.63,2-15.55,2-15.55l.62.1L386,310.32l14-11.53.25.78s-11.35,9-14.42,12.7c-2.38,2.85-6.84,10.81-9.09,14.94a10.51,10.51,0,0,0-1.28,5.38l1.13,78.22H370l1.1-76.7c.08-2.47-1.16-4.9-2.42-7C365.48,321.72,359.16,311.31,355.66,307.56Z" style="fill:#263238"></path></g><g id="freepik--tree-2--inject-76"><path d="M181,298.1c-4.52.48-10.94-5.46-15.38-4.47-9,2-31.25,2.92-36.68-4.55-7.11-9.76,0-39.44,9.07-47.42,7.56-6.66,40.23-2.52,40.23-2.52s12.76-17.37,19.33-18c10.33-1,31.79,12.28,35.11,22.11,3.16,9.35-11.31,27.44-13.81,37-.81,3.08.68,10.82-2,12.58C209.18,297.94,190.19,297.13,181,298.1Z" style="fill:#407BFF"></path><path d="M181,298.1c-4.52.48-10.94-5.46-15.38-4.47-9,2-31.25,2.92-36.68-4.55-7.11-9.76,0-39.44,9.07-47.42,7.56-6.66,40.23-2.52,40.23-2.52s12.76-17.37,19.33-18c10.33-1,31.79,12.28,35.11,22.11,3.16,9.35-11.31,27.44-13.81,37-.81,3.08.68,10.82-2,12.58C209.18,297.94,190.19,297.13,181,298.1Z" style="fill:#fff;opacity:0.30000000000000004"></path><path d="M201.18,272.43c2.52-2.7,10.95-9,10.95-9l-.31-1-12,8.1L195,256.22l-.79.66s3.9,10.61,3.29,14.35c-1.31,8.09-18.22,26.12-18.22,26.12h0s-12.12-13.85-14.38-19.47C163,273.24,162.29,258,162.29,258l-.8.12,1,17.8-17.89-14.72-.31,1s14.48,11.49,18.4,16.2c3,3.64,8.71,13.8,11.58,19.06a13.37,13.37,0,0,1,1.64,6.87l-1.44,106.44h8.42l-1.4-104.5c-.1-3.15,1.48-6.26,3.08-9C188.66,290.49,196.72,277.21,201.18,272.43Z" style="fill:#263238"></path></g><g id="freepik--Buildings--inject-76"><polygon points="425.19 343.2 417.7 343.2 417.7 346.16 418.92 346.16 418.92 359.42 423.96 359.42 423.96 346.16 425.19 346.16 425.19 343.2" style="fill:#407BFF"></polygon><g style="opacity:0.2"><polygon points="425.19 343.2 417.7 343.2 417.7 346.16 418.92 346.16 418.92 359.42 423.96 359.42 423.96 346.16 425.19 346.16 425.19 343.2"></polygon></g><polygon points="380.92 333.75 354.34 374.64 354.34 411.35 417.28 411.35 417.28 374.64 380.92 333.75" style="fill:#407BFF"></polygon><polygon points="380.92 333.75 354.34 374.64 354.34 411.35 417.28 411.35 417.28 374.64 380.92 333.75" style="fill:#fff;opacity:0.5"></polygon><polygon points="410.12 335.41 406.07 329.2 380.92 329.2 351.3 374.64 376.45 374.64 410.12 374.64 410.12 335.41" style="fill:#407BFF"></polygon><polygon points="410.12 335.41 406.07 329.2 380.92 329.2 351.3 374.64 376.45 374.64 410.12 374.64 410.12 335.41" style="opacity:0.2"></polygon><polygon points="376.45 374.64 406.07 329.2 435.7 374.64 376.45 374.64" style="fill:#407BFF"></polygon><polygon points="406.07 333.75 379.49 374.64 379.49 411.35 432.65 411.35 432.65 374.64 406.07 333.75" style="fill:#407BFF"></polygon><polygon points="406.07 333.75 379.49 374.64 379.49 411.35 432.65 411.35 432.65 374.64 406.07 333.75" style="fill:#fff;opacity:0.8"></polygon><rect x="397.01" y="385.39" width="18.47" height="25.76" style="fill:#407BFF"></rect><rect x="397.01" y="385.39" width="18.47" height="25.76" style="fill:#fff;opacity:0.4"></rect><polygon points="414.34 380 398.16 380 394.22 386.31 418.27 386.31 414.34 380" style="fill:#407BFF"></polygon><rect x="400.24" y="389.77" width="5.66" height="6.67" style="fill:#263238"></rect><rect x="406.6" y="389.77" width="5.66" height="6.67" style="fill:#263238"></rect><rect x="400.24" y="397.13" width="5.66" height="6.68" style="fill:#263238"></rect><rect x="406.6" y="397.13" width="5.66" height="6.68" style="fill:#263238"></rect><rect x="400.24" y="404.48" width="5.66" height="6.67" style="fill:#263238"></rect><rect x="406.6" y="404.48" width="5.66" height="6.67" style="fill:#263238"></rect><rect x="394.15" y="357.28" width="5.38" height="14.25" style="fill:#407BFF"></rect><rect x="412.97" y="357.28" width="5.38" height="14.25" style="fill:#407BFF"></rect><rect x="399.53" y="356.61" width="13.44" height="15.59" style="fill:#407BFF"></rect><rect x="399.53" y="356.61" width="13.44" height="15.59" style="fill:#fff;opacity:0.4"></rect><rect x="401.21" y="358.29" width="4.71" height="5.78" style="fill:#263238"></rect><rect x="406.58" y="358.29" width="4.71" height="5.78" style="fill:#263238"></rect><rect x="401.21" y="364.75" width="4.71" height="5.78" style="fill:#263238"></rect><rect x="406.58" y="364.75" width="4.71" height="5.78" style="fill:#263238"></rect><rect x="240.78" y="272.1" width="33.95" height="139.13" style="fill:#407BFF"></rect><rect x="240.78" y="272.1" width="33.95" height="139.13" style="fill:#fff;opacity:0.5"></rect><polygon points="249.9 258.12 240.78 272.1 274.73 272.1 265.62 258.12 249.9 258.12" style="fill:#407BFF"></polygon><polygon points="249.9 258.12 240.78 272.1 274.73 272.1 265.62 258.12 249.9 258.12" style="opacity:0.2"></polygon><polygon points="265.62 258.12 256.5 272.1 290.45 272.1 281.34 258.12 265.62 258.12" style="fill:#407BFF"></polygon><rect x="265.62" y="235.78" width="15.72" height="22.33" style="fill:#407BFF"></rect><rect x="265.62" y="235.78" width="15.72" height="22.33" style="fill:#fff;opacity:0.8"></rect><path d="M277.7,242.46a4,4,0,0,0-7.91,0v12.8h7.91Z" style="fill:#263238"></path><path d="M273.74,238.51a3.72,3.72,0,0,0-1,.15,3.93,3.93,0,0,1,3,3.8v12.8h2v-12.8A4,4,0,0,0,273.74,238.51Z" style="fill:#263238"></path><path d="M273.74,238.51a3.72,3.72,0,0,0-1,.15,3.93,3.93,0,0,1,3,3.8v12.8h2v-12.8A4,4,0,0,0,273.74,238.51Z" style="fill:#fff;opacity:0.5"></path><rect x="249.9" y="235.78" width="15.72" height="22.33" style="fill:#407BFF"></rect><rect x="249.9" y="235.78" width="15.72" height="22.33" style="fill:#fff;opacity:0.5"></rect><path d="M253.54,242.46a4,4,0,0,1,7.91,0v12.8h-7.91Z" style="fill:#263238"></path><path d="M257.49,238.51a3.66,3.66,0,0,1,1,.15,3.94,3.94,0,0,0-3,3.8v12.8h-2v-12.8A4,4,0,0,1,257.49,238.51Z" style="fill:#263238"></path><path d="M257.49,238.51a3.66,3.66,0,0,1,1,.15,3.94,3.94,0,0,0-3,3.8v12.8h-2v-12.8A4,4,0,0,1,257.49,238.51Z" style="fill:#fff;opacity:0.5"></path><polygon points="249.48 235.98 265.58 188.29 281.67 235.98 249.48 235.98" style="fill:#407BFF"></polygon><polygon points="265.62 188.41 265.58 188.29 249.48 235.98 265.62 235.98 265.62 188.41" style="opacity:0.2"></polygon><rect x="256.5" y="272.1" width="33.95" height="139.13" style="fill:#407BFF"></rect><rect x="256.5" y="272.1" width="33.95" height="139.13" style="fill:#fff;opacity:0.8"></rect><rect x="262.1" y="281.54" width="5.18" height="13.72" style="fill:#407BFF"></rect><rect x="280.21" y="281.54" width="5.18" height="13.72" style="fill:#407BFF"></rect><rect x="267.27" y="280.89" width="12.94" height="15.01" style="fill:#407BFF"></rect><rect x="267.27" y="280.89" width="12.94" height="15.01" style="fill:#fff;opacity:0.30000000000000004"></rect><rect x="268.89" y="282.51" width="4.53" height="5.56" style="fill:#263238"></rect><rect x="274.07" y="282.51" width="4.53" height="5.56" style="fill:#263238"></rect><rect x="268.89" y="288.72" width="4.53" height="5.56" style="fill:#263238"></rect><rect x="274.07" y="288.72" width="4.53" height="5.56" style="fill:#263238"></rect><rect x="262.1" y="346.72" width="5.18" height="13.72" style="fill:#407BFF"></rect><rect x="280.21" y="346.72" width="5.18" height="13.72" style="fill:#407BFF"></rect><rect x="267.27" y="346.08" width="12.94" height="15.01" style="fill:#407BFF"></rect><rect x="267.27" y="346.08" width="12.94" height="15.01" style="fill:#fff;opacity:0.30000000000000004"></rect><rect x="268.89" y="347.69" width="4.53" height="5.56" style="fill:#263238"></rect><rect x="274.07" y="347.69" width="4.53" height="5.56" style="fill:#263238"></rect><rect x="268.89" y="353.9" width="4.53" height="5.56" style="fill:#263238"></rect><rect x="274.07" y="353.9" width="4.53" height="5.56" style="fill:#263238"></rect><rect x="242.78" y="313.48" width="10" height="15.01" style="fill:#407BFF"></rect><rect x="242.78" y="313.48" width="10" height="15.01" style="fill:#fff;opacity:0.8"></rect><rect x="244.02" y="315.1" width="3.5" height="5.56" style="fill:#263238"></rect><rect x="248.02" y="315.1" width="3.5" height="5.56" style="fill:#263238"></rect><rect x="244.02" y="321.31" width="3.5" height="5.56" style="fill:#263238"></rect><rect x="248.02" y="321.31" width="3.5" height="5.56" style="fill:#263238"></rect><rect x="242.78" y="378.67" width="10" height="15.01" style="fill:#407BFF"></rect><rect x="242.78" y="378.67" width="10" height="15.01" style="fill:#fff;opacity:0.8"></rect><rect x="244.02" y="380.29" width="3.5" height="5.56" style="fill:#263238"></rect><rect x="248.02" y="380.29" width="3.5" height="5.56" style="fill:#263238"></rect><rect x="244.02" y="386.5" width="3.5" height="5.56" style="fill:#263238"></rect><rect x="248.02" y="386.5" width="3.5" height="5.56" style="fill:#263238"></rect><polygon points="74.35 283.66 82.27 283.66 82.27 286.79 80.98 286.79 80.98 298.4 75.64 298.4 75.64 286.79 74.35 286.79 74.35 283.66" style="fill:#407BFF"></polygon><g style="opacity:0.2"><polygon points="74.35 283.66 82.27 283.66 82.27 286.79 80.98 286.79 80.98 298.4 75.64 298.4 75.64 286.79 74.35 286.79 74.35 283.66"></polygon></g><polygon points="110.86 273.33 139.01 316.63 139.01 411.35 82.72 411.35 82.72 316.63 110.86 273.33" style="fill:#407BFF"></polygon><polygon points="110.86 273.33 139.01 316.63 139.01 411.35 82.72 411.35 82.72 316.63 110.86 273.33" style="fill:#fff;opacity:0.8"></polygon><polygon points="90.3 275.09 94.59 268.52 110.86 268.52 142.23 316.63 125.95 316.63 90.3 316.63 90.3 275.09" style="fill:#407BFF"></polygon><polygon points="90.3 275.09 94.59 268.52 110.86 268.52 142.23 316.63 125.95 316.63 90.3 316.63 90.3 275.09" style="opacity:0.2"></polygon><polygon points="125.95 316.63 94.59 268.52 63.22 316.63 125.95 316.63" style="fill:#407BFF"></polygon><polygon points="94.59 273.33 122.73 316.63 122.73 411.35 66.44 411.35 66.44 316.63 94.59 273.33" style="fill:#407BFF"></polygon><polygon points="94.59 273.33 122.73 316.63 122.73 411.35 66.44 411.35 66.44 316.63 94.59 273.33" style="fill:#fff;opacity:0.5"></polygon><rect x="87.96" y="293" width="13.26" height="15.01" style="fill:#407BFF"></rect><rect x="87.96" y="293" width="13.26" height="15.01" style="fill:#fff;opacity:0.7000000000000001"></rect><rect x="94.91" y="294.61" width="4.53" height="5.56" style="fill:#263238"></rect><rect x="89.73" y="294.61" width="4.53" height="5.56" style="fill:#263238"></rect><rect x="94.91" y="300.83" width="4.53" height="5.56" style="fill:#263238"></rect><rect x="89.73" y="300.83" width="4.53" height="5.56" style="fill:#263238"></rect><rect x="78.31" y="319.59" width="32.55" height="21.28" style="fill:#407BFF"></rect><rect x="78.31" y="319.59" width="32.55" height="21.28" style="fill:#fff;opacity:0.7000000000000001"></rect><rect x="102.73" y="321.88" width="6" height="7.89" style="fill:#263238"></rect><rect x="95.87" y="321.88" width="6" height="7.89" style="fill:#263238"></rect><rect x="102.73" y="330.69" width="6" height="7.89" style="fill:#263238"></rect><rect x="95.87" y="330.69" width="6" height="7.89" style="fill:#263238"></rect><rect x="110.86" y="320.51" width="6.85" height="19.44" style="fill:#407BFF"></rect><rect x="71.46" y="320.51" width="6.85" height="19.44" style="fill:#407BFF"></rect><rect x="87.31" y="321.88" width="6" height="7.89" style="fill:#263238"></rect><rect x="80.45" y="321.88" width="6" height="7.89" style="fill:#263238"></rect><rect x="87.31" y="330.69" width="6" height="7.89" style="fill:#263238"></rect><rect x="80.45" y="330.69" width="6" height="7.89" style="fill:#263238"></rect><rect x="78.31" y="351.62" width="32.55" height="21.28" style="fill:#407BFF"></rect><rect x="78.31" y="351.62" width="32.55" height="21.28" style="fill:#fff;opacity:0.7000000000000001"></rect><rect x="102.73" y="353.91" width="6" height="7.89" style="fill:#263238"></rect><rect x="95.87" y="353.91" width="6" height="7.89" style="fill:#263238"></rect><rect x="102.73" y="362.72" width="6" height="7.89" style="fill:#263238"></rect><rect x="95.87" y="362.72" width="6" height="7.89" style="fill:#263238"></rect><rect x="110.86" y="352.54" width="6.85" height="19.44" style="fill:#407BFF"></rect><rect x="71.46" y="352.54" width="6.85" height="19.44" style="fill:#407BFF"></rect><rect x="87.31" y="353.91" width="6" height="7.89" style="fill:#263238"></rect><rect x="80.45" y="353.91" width="6" height="7.89" style="fill:#263238"></rect><rect x="87.31" y="362.72" width="6" height="7.89" style="fill:#263238"></rect><rect x="80.45" y="362.72" width="6" height="7.89" style="fill:#263238"></rect><rect x="84.81" y="384.07" width="19.56" height="27.28" transform="translate(189.17 795.42) rotate(180)" style="fill:#407BFF"></rect><rect x="84.81" y="384.07" width="19.56" height="27.28" transform="translate(189.17 795.42) rotate(180)" style="fill:#fff;opacity:0.7000000000000001"></rect><polygon points="86.02 378.35 103.15 378.35 107.32 385.03 81.86 385.03 86.02 378.35" style="fill:#407BFF"></polygon><rect x="94.96" y="388.7" width="5.99" height="7.07" style="fill:#263238"></rect><rect x="88.22" y="388.7" width="5.99" height="7.07" style="fill:#263238"></rect><rect x="94.96" y="396.49" width="5.99" height="7.07" style="fill:#263238"></rect><rect x="88.22" y="396.49" width="5.99" height="7.07" style="fill:#263238"></rect><rect x="94.96" y="404.28" width="5.99" height="7.07" style="fill:#263238"></rect><rect x="88.22" y="404.28" width="5.99" height="7.07" style="fill:#263238"></rect><rect x="271.36" y="316.03" width="80.41" height="95.32" style="fill:#407BFF"></rect><rect x="271.36" y="316.03" width="80.41" height="95.32" style="fill:#fff;opacity:0.6000000000000001"></rect><rect x="330.84" y="316.03" width="39.71" height="95.32" style="fill:#407BFF"></rect><rect x="330.84" y="316.03" width="39.71" height="95.32" style="fill:#fff;opacity:0.8"></rect><polygon points="360.73 319.55 345.02 290.39 278.12 290.39 262.41 319.55 360.73 319.55" style="fill:#407BFF"></polygon><polygon points="360.73 319.55 345.02 290.39 278.12 290.39 262.41 319.55 360.73 319.55" style="opacity:0.30000000000000004"></polygon><polygon points="379.51 319.55 363.8 290.39 337.6 290.39 321.89 319.55 379.51 319.55" style="fill:#407BFF"></polygon><polygon points="379.51 319.55 363.8 290.39 337.6 290.39 321.89 319.55 379.51 319.55" style="opacity:0.2"></polygon><rect x="279.93" y="327.45" width="14.38" height="16.68" style="fill:#407BFF"></rect><rect x="279.93" y="327.45" width="14.38" height="16.68" style="fill:#fff;opacity:0.30000000000000004"></rect><rect x="281.72" y="329.25" width="5.03" height="6.18" style="fill:#263238"></rect><rect x="287.47" y="329.25" width="5.03" height="6.18" style="fill:#263238"></rect><rect x="281.72" y="336.15" width="5.03" height="6.18" style="fill:#263238"></rect><rect x="287.47" y="336.15" width="5.03" height="6.18" style="fill:#263238"></rect><rect x="308.26" y="327.45" width="14.38" height="16.68" style="fill:#407BFF"></rect><rect x="308.26" y="327.45" width="14.38" height="16.68" style="fill:#fff;opacity:0.30000000000000004"></rect><rect x="310.06" y="329.25" width="5.03" height="6.18" style="fill:#263238"></rect><rect x="315.81" y="329.25" width="5.03" height="6.18" style="fill:#263238"></rect><rect x="310.06" y="336.15" width="5.03" height="6.18" style="fill:#263238"></rect><rect x="315.81" y="336.15" width="5.03" height="6.18" style="fill:#263238"></rect><rect x="337.58" y="328.17" width="5.75" height="15.24" style="fill:#407BFF"></rect><rect x="357.71" y="328.17" width="5.75" height="15.24" style="fill:#407BFF"></rect><rect x="343.33" y="327.45" width="14.38" height="16.68" style="fill:#407BFF"></rect><rect x="343.33" y="327.45" width="14.38" height="16.68" style="fill:#fff;opacity:0.30000000000000004"></rect><rect x="345.13" y="329.25" width="5.03" height="6.18" style="fill:#263238"></rect><rect x="350.88" y="329.25" width="5.03" height="6.18" style="fill:#263238"></rect><rect x="345.13" y="336.15" width="5.03" height="6.18" style="fill:#263238"></rect><rect x="350.88" y="336.15" width="5.03" height="6.18" style="fill:#263238"></rect><rect x="279.93" y="350.89" width="14.38" height="16.68" style="fill:#407BFF"></rect><rect x="279.93" y="350.89" width="14.38" height="16.68" style="fill:#fff;opacity:0.30000000000000004"></rect><rect x="281.72" y="352.69" width="5.03" height="6.18" style="fill:#263238"></rect><rect x="287.47" y="352.69" width="5.03" height="6.18" style="fill:#263238"></rect><rect x="281.72" y="359.59" width="5.03" height="6.18" style="fill:#263238"></rect><rect x="287.47" y="359.59" width="5.03" height="6.18" style="fill:#263238"></rect><rect x="308.26" y="350.89" width="14.38" height="16.68" style="fill:#407BFF"></rect><rect x="308.26" y="350.89" width="14.38" height="16.68" style="fill:#fff;opacity:0.30000000000000004"></rect><rect x="310.06" y="352.69" width="5.03" height="6.18" style="fill:#263238"></rect><rect x="315.81" y="352.69" width="5.03" height="6.18" style="fill:#263238"></rect><rect x="310.06" y="359.59" width="5.03" height="6.18" style="fill:#263238"></rect><rect x="315.81" y="359.59" width="5.03" height="6.18" style="fill:#263238"></rect><rect x="337.58" y="351.61" width="5.75" height="15.24" style="fill:#407BFF"></rect><rect x="357.71" y="351.61" width="5.75" height="15.24" style="fill:#407BFF"></rect><rect x="343.33" y="350.89" width="14.38" height="16.68" style="fill:#407BFF"></rect><rect x="343.33" y="350.89" width="14.38" height="16.68" style="fill:#fff;opacity:0.30000000000000004"></rect><rect x="345.13" y="352.69" width="5.03" height="6.18" style="fill:#263238"></rect><rect x="350.88" y="352.69" width="5.03" height="6.18" style="fill:#263238"></rect><rect x="345.13" y="359.59" width="5.03" height="6.18" style="fill:#263238"></rect><rect x="350.88" y="359.59" width="5.03" height="6.18" style="fill:#263238"></rect><rect x="271.36" y="386.19" width="99.19" height="25.16" style="fill:#407BFF"></rect><rect x="271.36" y="386.19" width="59.48" height="25.16" style="opacity:0.1"></rect><rect x="289.95" y="381.04" width="18.78" height="30.31" style="fill:#407BFF"></rect><rect x="289.95" y="381.04" width="18.78" height="30.31" style="fill:#fff;opacity:0.30000000000000004"></rect><polygon points="307.57 374.69 291.11 374.69 287.12 382.11 311.57 382.11 307.57 374.69" style="fill:#407BFF"></polygon><rect x="293.23" y="386.19" width="5.75" height="7.85" style="fill:#263238"></rect><rect x="299.7" y="386.19" width="5.75" height="7.85" style="fill:#263238"></rect><rect x="293.23" y="394.84" width="5.75" height="7.85" style="fill:#263238"></rect><rect x="299.7" y="394.84" width="5.75" height="7.85" style="fill:#263238"></rect><rect x="293.23" y="403.5" width="5.75" height="7.85" style="fill:#263238"></rect><rect x="299.7" y="403.5" width="5.75" height="7.85" style="fill:#263238"></rect><polygon points="293.11 314.56 293.11 290.39 324.03 290.39 311.01 314.56 293.11 314.56" style="fill:#407BFF"></polygon><polygon points="293.11 314.56 293.11 290.39 324.03 290.39 311.01 314.56 293.11 314.56" style="fill:#fff;opacity:0.8"></polygon><rect x="292.2" y="295.78" width="18.78" height="18.78" transform="translate(603.18 610.35) rotate(180)" style="fill:#407BFF"></rect><rect x="292.2" y="295.78" width="18.78" height="18.78" transform="translate(603.18 610.35) rotate(180)" style="fill:#fff;opacity:0.6000000000000001"></rect><path d="M297.63,310h7.92a1.3,1.3,0,0,1,1.3,1.3v.95a0,0,0,0,1,0,0H296.33a0,0,0,0,1,0,0v-.95A1.3,1.3,0,0,1,297.63,310Z" transform="translate(603.18 622.34) rotate(180)" style="fill:#407BFF"></path><rect x="301.86" y="302.86" width="3.06" height="3.06" style="fill:#263238"></rect><rect x="298.27" y="302.86" width="3.06" height="3.06" style="fill:#263238"></rect><rect x="301.86" y="306.46" width="3.06" height="3.06" style="fill:#263238"></rect><rect x="298.27" y="306.46" width="3.06" height="3.06" style="fill:#263238"></rect><path d="M304.92,302.34a3.33,3.33,0,1,0-6.65,0Z" style="fill:#263238"></path><polygon points="304.92 296.86 308.4 290.39 324.03 290.39 320.55 296.86 304.92 296.86" style="fill:#407BFF"></polygon><polygon points="304.92 296.86 308.4 290.39 324.03 290.39 320.55 296.86 304.92 296.86" style="opacity:0.2"></polygon><polygon points="310.33 290.39 313.82 296.86 289.36 296.86 292.85 290.39 310.33 290.39" style="fill:#407BFF"></polygon><rect x="130.99" y="330.41" width="94.9" height="80.94" style="fill:#407BFF"></rect><rect x="130.99" y="330.41" width="94.9" height="80.94" style="fill:#fff;opacity:0.5"></rect><polygon points="234.84 333.93 219.13 304.77 137.75 304.77 122.04 333.93 234.84 333.93" style="fill:#407BFF"></polygon><polygon points="234.84 333.93 219.13 304.77 137.75 304.77 122.04 333.93 234.84 333.93" style="opacity:0.30000000000000004"></polygon><rect x="149.77" y="330.41" width="94.9" height="80.94" style="fill:#407BFF"></rect><rect x="149.77" y="330.41" width="94.9" height="80.94" style="fill:#fff;opacity:0.8"></rect><polygon points="225.38 293.65 216.57 293.65 216.57 297.13 218.01 297.13 218.01 305.87 223.94 305.87 223.94 297.13 225.38 297.13 225.38 293.65" style="fill:#407BFF"></polygon><polygon points="253.62 333.93 237.91 304.77 156.53 304.77 140.82 333.93 253.62 333.93" style="fill:#407BFF"></polygon><polygon points="253.62 333.93 237.91 304.77 156.53 304.77 140.82 333.93 253.62 333.93" style="opacity:0.2"></polygon><rect x="187.83" y="381.04" width="18.78" height="30.31" style="fill:#407BFF"></rect><rect x="187.83" y="381.04" width="18.78" height="30.31" style="fill:#fff;opacity:0.4"></rect><polygon points="205.44 374.69 188.99 374.69 184.99 382.11 209.44 382.11 205.44 374.69" style="fill:#407BFF"></polygon><rect x="191.11" y="386.19" width="5.75" height="7.85" style="fill:#263238"></rect><rect x="197.58" y="386.19" width="5.75" height="7.85" style="fill:#263238"></rect><rect x="191.11" y="394.84" width="5.75" height="7.85" style="fill:#263238"></rect><rect x="197.58" y="394.84" width="5.75" height="7.85" style="fill:#263238"></rect><rect x="191.11" y="403.5" width="5.75" height="7.85" style="fill:#263238"></rect><rect x="197.58" y="403.5" width="5.75" height="7.85" style="fill:#263238"></rect><rect x="159.8" y="340.6" width="27.32" height="16.68" style="fill:#407BFF"></rect><rect x="159.8" y="340.6" width="27.32" height="16.68" style="fill:#fff;opacity:0.4"></rect><rect x="161.6" y="342.39" width="5.03" height="6.18" style="fill:#263238"></rect><rect x="167.35" y="342.39" width="5.03" height="6.18" style="fill:#263238"></rect><rect x="161.6" y="349.29" width="5.03" height="6.18" style="fill:#263238"></rect><rect x="167.35" y="349.29" width="5.03" height="6.18" style="fill:#263238"></rect><rect x="154.05" y="341.31" width="5.75" height="15.24" style="fill:#407BFF"></rect><rect x="187.12" y="341.31" width="5.75" height="15.24" style="fill:#407BFF"></rect><rect x="174.54" y="342.39" width="5.03" height="6.18" style="fill:#263238"></rect><rect x="180.29" y="342.39" width="5.03" height="6.18" style="fill:#263238"></rect><rect x="174.54" y="349.29" width="5.03" height="6.18" style="fill:#263238"></rect><rect x="180.29" y="349.29" width="5.03" height="6.18" style="fill:#263238"></rect><rect x="207.31" y="340.6" width="27.32" height="16.68" style="fill:#407BFF"></rect><rect x="207.31" y="340.6" width="27.32" height="16.68" style="fill:#fff;opacity:0.4"></rect><rect x="209.11" y="342.39" width="5.03" height="6.18" style="fill:#263238"></rect><rect x="214.86" y="342.39" width="5.03" height="6.18" style="fill:#263238"></rect><rect x="209.11" y="349.29" width="5.03" height="6.18" style="fill:#263238"></rect><rect x="214.86" y="349.29" width="5.03" height="6.18" style="fill:#263238"></rect><rect x="201.56" y="341.31" width="5.75" height="15.24" style="fill:#407BFF"></rect><rect x="234.63" y="341.31" width="5.75" height="15.24" style="fill:#407BFF"></rect><rect x="222.05" y="342.39" width="5.03" height="6.18" style="fill:#263238"></rect><rect x="227.8" y="342.39" width="5.03" height="6.18" style="fill:#263238"></rect><rect x="222.05" y="349.29" width="5.03" height="6.18" style="fill:#263238"></rect><rect x="227.8" y="349.29" width="5.03" height="6.18" style="fill:#263238"></rect><rect x="154.05" y="376.18" width="5.75" height="15.24" style="fill:#407BFF"></rect><rect x="174.18" y="376.18" width="5.75" height="15.24" style="fill:#407BFF"></rect><rect x="159.8" y="375.46" width="14.38" height="16.68" style="fill:#407BFF"></rect><rect x="159.8" y="375.46" width="14.38" height="16.68" style="fill:#fff;opacity:0.4"></rect><rect x="161.6" y="377.26" width="5.03" height="6.18" style="fill:#263238"></rect><rect x="167.35" y="377.26" width="5.03" height="6.18" style="fill:#263238"></rect><rect x="161.6" y="384.16" width="5.03" height="6.18" style="fill:#263238"></rect><rect x="167.35" y="384.16" width="5.03" height="6.18" style="fill:#263238"></rect><rect x="214.5" y="376.18" width="5.75" height="15.24" style="fill:#407BFF"></rect><rect x="234.63" y="376.18" width="5.75" height="15.24" style="fill:#407BFF"></rect><rect x="220.25" y="375.46" width="14.38" height="16.68" style="fill:#407BFF"></rect><rect x="220.25" y="375.46" width="14.38" height="16.68" style="fill:#fff;opacity:0.4"></rect><rect x="222.05" y="377.26" width="5.03" height="6.18" style="fill:#263238"></rect><rect x="227.8" y="377.26" width="5.03" height="6.18" style="fill:#263238"></rect><rect x="222.05" y="384.16" width="5.03" height="6.18" style="fill:#263238"></rect><rect x="227.8" y="384.16" width="5.03" height="6.18" style="fill:#263238"></rect><polygon points="205.7 328.94 205.7 304.77 174.78 304.77 187.8 328.94 205.7 328.94" style="fill:#407BFF"></polygon><polygon points="205.7 328.94 205.7 304.77 174.78 304.77 187.8 328.94 205.7 328.94" style="fill:#fff;opacity:0.5"></polygon><rect x="187.83" y="310.16" width="18.78" height="18.78" style="fill:#407BFF"></rect><rect x="187.83" y="310.16" width="18.78" height="18.78" style="fill:#fff;opacity:0.8"></rect><path d="M192,324.42h10.51a0,0,0,0,1,0,0v.95a1.3,1.3,0,0,1-1.3,1.3h-7.92a1.3,1.3,0,0,1-1.3-1.3v-.95A0,0,0,0,1,192,324.42Z" style="fill:#407BFF"></path><rect x="193.89" y="317.24" width="3.06" height="3.06" style="fill:#263238"></rect><rect x="197.49" y="317.24" width="3.06" height="3.06" style="fill:#263238"></rect><rect x="193.89" y="320.84" width="3.06" height="3.06" style="fill:#263238"></rect><rect x="197.49" y="320.84" width="3.06" height="3.06" style="fill:#263238"></rect><path d="M193.89,316.72a3.33,3.33,0,1,1,6.65,0Z" style="fill:#263238"></path><polygon points="193.89 311.23 190.41 304.77 174.78 304.77 178.26 311.23 193.89 311.23" style="fill:#407BFF"></polygon><polygon points="193.89 311.23 190.41 304.77 174.78 304.77 178.26 311.23 193.89 311.23" style="opacity:0.30000000000000004"></polygon><polygon points="188.47 304.77 184.99 311.23 209.44 311.23 205.96 304.77 188.47 304.77" style="fill:#407BFF"></polygon></g><g id="freepik--tree-1--inject-76"><path d="M135.83,395s-17.57-2-19.38-6.85c-1.46-3.9,7.16-10.49,8.16-14.54.77-3.12-1.31-9.8-.36-12.88.85-2.72,6.1-6.43,6.74-9.21.3-1.32-1.27-4-1-5.32.74-3,4.53-10.18,7.57-9.69,4.78.77,6.82,13.24,7,18.08.07,1.82-2.33,5.16-2.15,7,.33,3.25,6.38,8.2,6.26,11.46,0,1.37-2.91,3.24-3,4.61-.07,2.47,5.49,6.24,4.84,8.63C149.49,390.38,135.83,395,135.83,395Z" style="fill:#407BFF"></path><path d="M140.81,369.16l2.2-2.1-.1-.24L141,368.66a1.18,1.18,0,0,1-1,.31l-3.41-.67-.5-19.68-.71,0-.83,32.06a82.56,82.56,0,0,1-8,2.09c-1.08.14-4.37,0-4.37,0v.39s3.46.25,4.61.16c.57,0,2.25-.43,2.25-.43L126.79,385l.24.27,2.81-2.51,4.63-1.14-.77,29.71h3.93l-1.08-42.49s3.08.6,4.12.63,3.79-.37,3.79-.37l.14-.19Z" style="fill:#263238"></path></g></svg>